{"title":"The Ninth Gate (1999) BDRip-AVC MediaClub","uid":9477595,"size":4089769467,"categoryP":"video","categoryS":"hd___movies","magnet":"?xt=urn:btih:4450ee923c8f8c8410d689303e4c4cb03e4689ce&amp;dn=The+Ninth+Gate+%281999%29+BDRip-AVC+MediaClub&amp;tr=udp%3A%2F%2Ftracker.openbittorrent.com%3A80&amp;tr=udp%3A%2F%2Fopen.demonii.com%3A1337&amp;tr=udp%3A%2F%2Ftracker.coppersurfer.tk%3A6969&amp;tr=udp%3A%2F%2Fexodus.desync.com%3A6969","seeders":7,"leechers":0,"uploader":"neni69","files":1,"time":1389730651,"description":" &lt;a href=&quot; http://mediaclub.tv/&quot; rel=&quot;nofollow&quot; target=&quot;_NEW&quot;&gt; http://mediaclub.tv/&lt;/a&gt;   Welcome to MediaClub\n\n===================================================================\n\nUnique ID                      : 180149142391412310285818621431601768307 (0x87877678AAB70A2AA7979EEEB8392773)\nComplete name                  : E:MC9.wrata.1999.x264.BDRip(AVC)-MediaClub9.wrata.1999.x264.BDRip(AVC)-MediaClub.mkv\nFormat                         : Matroska\nFormat version                 : Version 2\nFile size                      : 3.81 GiB\nDuration                       : 2h 13mn\nOverall bit rate               : 4 079 Kbps\nMovie name                     : -= Release MediaClub =-\nEncoded date                   : UTC 2014-01-12 20:27:48\nWriting application            : mkvmerge v5.6.0 ('Kenya Kane') built on May 27 2012 16:44:04\nWriting library                : libebml v1.2.3 + libmatroska v1.3.0\n\nVideo\nID                             : 1\nFormat                         : AVC\nFormat/Info                    : Advanced Video Codec\nFormat profile                 : &lt;a class=&quot;__cf_email__&quot; href=&quot;/cdn-cgi/l/email-protection&quot; data-cfemail=&quot;531b3a343b131f677d62&quot;&gt;[email&amp;#160;protected]&lt;/a&gt;&lt;script cf-hash='f9e31' type=&quot;text/javascript&quot;&gt;\n/* &lt;![CDATA[ */!function(){try{var t=&quot;currentScript&quot;in document?document.currentScript:function(){for(var t=document.getElementsByTagName(&quot;script&quot;),e=t.length;e--;)if(t[e].getAttribute(&quot;cf-hash&quot;))return t[e]}();if(t&amp;&amp;t.previousSibling){var e,r,n,i,c=t.previousSibling,a=c.getAttribute(&quot;data-cfemail&quot;);if(a){for(e=&quot;&quot;,r=parseInt(a.substr(0,2),16),n=2;a.length-n;n+=2)i=parseInt(a.substr(n,2),16)^r,e+=String.fromCharCode(i);e=document.createTextNode(e),c.parentNode.replaceChild(e,c)}}}catch(u){}}();/* ]]&gt; */&lt;/script&gt;\nFormat settings, CABAC         : Yes\nFormat settings, ReFrames      : 11 frames\nCodec ID                       : V_MPEG4/ISO/AVC\nDuration                       : 2h 13mn\nBit rate                       : 1 758 Kbps\nNominal bit rate               : 1 849 Kbps\nWidth                          : 1 024 pixels\nHeight                         : 434 pixels\nDisplay aspect ratio           : 2.35:1\nFrame rate                     : 23.976 fps\nColor space                    : YUV\nChroma subsampling             : 4:2:0\nBit depth                      : 8 bits\nScan type                      : Progressive\nBits/(Pixel*Frame)             : 0.165\nStream size                    : 1.64 GiB (43%)\nTitle                          : 9.wrata.1999.x264.BDRip(AVC)-neni\nWriting library                : x264 core 130 r2273 b3065e6\nEncoding settings              : cabac=1 / ref=11 / deblock=1:-2:-3 / analyse=0x3:0x113 / me=umh / subme=11 / psy=1 / psy_rd=1.00:0.15 / mixed_ref=1 / me_range=48 / chroma_me=1 / trellis=2 / 8x8dct=1 / cqm=0 / deadzone=21,11 / fast_pskip=0 / chroma_qp_offset=-3 / threads=9 / lookahead_threads=1 / sliced_threads=0 / nr=0 / decimate=0 / interlaced=0 / bluray_compat=0 / constrained_intra=0 / bframes=8 / b_pyramid=2 / b_adapt=2 / b_bias=0 / direct=3 / weightb=1 / open_gop=0 / weightp=2 / keyint=240 / keyint_min=23 / scenecut=40 / intra_refresh=0 / rc=2pass / mbtree=0 / bitrate=1849 / ratetol=1.0 / qcomp=0.60 / qpmin=0 / qpmax=69 / qpstep=4 / cplxblur=20.0 / qblur=0.5 / ip_ratio=1.40 / pb_ratio=1.30 / aq=1:1.00\nLanguage                       : English\nDefault                        : Yes\nForced                         : Yes\n\nAudio #1\nID                             : 2\nFormat                         : AC-3\nFormat/Info                    : Audio Coding 3\nMode extension                 : CM (complete main)\nFormat settings, Endianness    : Big\nCodec ID                       : A_AC3\nDuration                       : 2h 13mn\nBit rate mode                  : Constant\nBit rate                       : 384 Kbps\nChannel(s)                     : 6 channels\nChannel positions              : Front: L C R, Side: L R, LFE\nSampling rate                  : 48.0 KHz\nBit depth                      : 16 bits\nCompression mode               : Lossy\nStream size                    : 367 MiB (9%)\nTitle                          : \nLanguage                       : Russian\nDefault                        : Yes\nForced                         : Yes\n\nAudio #2\nID                             : 3\nFormat                         : AC-3\nFormat/Info                    : Audio Coding 3\nMode extension                 : CM (complete main)\nFormat settings, Endianness    : Big\nCodec ID                       : A_AC3\nDuration                       : 2h 13mn\nBit rate mode                  : Constant\nBit rate                       : 448 Kbps\nChannel(s)                     : 6 channels\nChannel positions              : Front: L C R, Side: L R, LFE\nSampling rate                  : 48.0 KHz\nBit depth                      : 16 bits\nCompression mode               : Lossy\nStream size                    : 428 MiB (11%)\nTitle                          : \nLanguage                       : Russian\nDefault                        : No\nForced                         : No\n\nAudio #3\nID                             : 4\nFormat                         : AC-3\nFormat/Info                    : Audio Coding 3\nMode extension                 : CM (complete main)\nFormat settings, Endianness    : Big\nCodec ID                       : A_AC3\nDuration                       : 2h 13mn\nBit rate mode                  : Constant\nBit rate                       : 384 Kbps\nChannel(s)                     : 6 channels\nChannel positions              : Front: L C R, Side: L R, LFE\nSampling rate                  : 48.0 KHz\nBit depth                      : 16 bits\nCompression mode               : Lossy\nStream size                    : 367 MiB (9%)\nTitle                          : \nLanguage                       : Russian\nDefault                        : No\nForced                         : No\n\nAudio #4\nID                             : 5\nFormat                         : AC-3\nFormat/Info                    : Audio Coding 3\nMode extension                 : CM (complete main)\nFormat settings, Endianness    : Big\nCodec ID                       : A_AC3\nDuration                       : 2h 13mn\nBit rate mode                  : Constant\nBit rate                       : 384 Kbps\nChannel(s)                     : 6 channels\nChannel positions              : Front: L C R, Side: L R, LFE\nSampling rate                  : 48.0 KHz\nBit depth                      : 16 bits\nCompression mode               : Lossy\nStream size                    : 367 MiB (9%)\nTitle                          : \nLanguage                       : Russian\nDefault                        : No\nForced                         : No\n\nAudio #5\nID                             : 6\nFormat                         : AC-3\nFormat/Info                    : Audio Coding 3\nMode extension                 : CM (complete main)\nFormat settings, Endianness    : Big\nCodec ID                       : A_AC3\nDuration                       : 2h 13mn\nBit rate mode                  : Constant\nBit rate                       : 192 Kbps\nChannel(s)                     : 2 channels\nChannel positions              : Front: L R\nSampling rate                  : 48.0 KHz\nBit depth                      : 16 bits\nCompression mode               : Lossy\nStream size                    : 184 MiB (5%)\nTitle                          : \nLanguage                       : Ukrainian\nDefault                        : No\nForced                         : No\n\nAudio #6\nID                             : 7\nFormat                         : AC-3\nFormat/Info                    : Audio Coding 3\nMode extension                 : CM (complete main)\nFormat settings, Endianness    : Big\nCodec ID                       : A_AC3\nDuration                       : 2h 13mn\nBit rate mode                  : Constant\nBit rate                       : 448 Kbps\nChannel(s)                     : 6 channels\nChannel positions              : Front: L C R, Side: L R, LFE\nSampling rate                  : 48.0 KHz\nBit depth                      : 16 bits\nCompression mode               : Lossy\nStream size                    : 428 MiB (11%)\nLanguage                       : English\nDefault                        : No\nForced                         : No\n\nText #1\nID                             : 8\nFormat                         : UTF-8\nCodec ID                       : S_TEXT/UTF8\nCodec ID/Info                  : UTF-8 Plain Text\nLanguage                       : Russian\nDefault                        : No\nForced                         : No\n\nText #2\nID                             : 9\nFormat                         : UTF-8\nCodec ID                       : S_TEXT/UTF8\nCodec ID/Info                  : UTF-8 Plain Text\nLanguage                       : English\nDefault                        : No\nForced                         : No","torrent":{"xt":"urn:btih:4450ee923c8f8c8410d689303e4c4cb03e4689ce","amp;dn":"The+Ninth+Gate+%281999%29+BDRip-AVC+MediaClub","amp;tr":["udp%3A%2F%2Ftracker.openbittorrent.com%3A80","udp%3A%2F%2Fopen.demonii.com%3A1337","udp%3A%2F%2Ftracker.coppersurfer.tk%3A6969","udp%3A%2F%2Fexodus.desync.com%3A6969"],"infoHash":"4450ee923c8f8c8410d689303e4c4cb03e4689ce","infoHashBuffer":{"type":"Buffer","data":[68,80,238,146,60,143,140,132,16,214,137,48,62,76,76,176,62,70,137,206]},"announce":[],"urlList":[]}}